HIERARCHY
ROOT Hips
{
	OFFSET 0.000000 105.849998 0.000017
	CHANNELS 6 Xposition Yposition Zposition Yrotation Zrotation Xrotation
	JOINT RightUpLeg
	{
		OFFSET -11.500000 -1.849998 -0.000000
		CHANNELS 3 Yrotation Zrotation Xrotation
		JOINT RightLeg
		{
			OFFSET 0.000000 -48.000000 -0.000008
			CHANNELS 3 Yrotation Zrotation Xrotation
			JOINT RightFoot
			{
				OFFSET 0.000000 -48.000000 -0.000008
				CHANNELS 3 Yrotation Zrotation Xrotation
				End Site
				{
					OFFSET 0.000000 -8.000003 19.599998
				}
			}
		}
	}
	JOINT LeftUpLeg
	{
		OFFSET 11.500000 -1.849998 -0.000000
		CHANNELS 3 Yrotation Zrotation Xrotation
		JOINT LeftLeg
		{
			OFFSET 0.000000 -48.000000 -0.000008
			CHANNELS 3 Yrotation Zrotation Xrotation
			JOINT LeftFoot
			{
				OFFSET 0.000000 -48.000000 -0.000008
				CHANNELS 3 Yrotation Zrotation Xrotation
				End Site
				{
					OFFSET 0.000000 -8.000003 19.599998
				}
			}
		}
	}
	JOINT Spine
	{
		OFFSET 0.000000 16.653999 0.000003
		CHANNELS 3 Yrotation Zrotation Xrotation
		JOINT Spine1
		{
			OFFSET 0.000000 11.311996 0.000002
			CHANNELS 3 Yrotation Zrotation Xrotation
			JOINT Spine2
			{
				OFFSET 0.000000 11.779999 0.000002
				CHANNELS 3 Yrotation Zrotation Xrotation
				JOINT Spine3
				{
					OFFSET 0.000000 11.311996 0.000002
					CHANNELS 3 Yrotation Zrotation Xrotation
					JOINT Neck
					{
						OFFSET 0.000000 12.091003 0.000002
						CHANNELS 3 Yrotation Zrotation Xrotation
						JOINT Head
						{
							OFFSET 0.000000 9.000000 0.000001
							CHANNELS 3 Yrotation Zrotation Xrotation
							End Site
							{
								OFFSET 0.000000 18.000000 0.000003
							}
						}
					}
					JOINT RightShoulder
					{
						OFFSET -3.500000 8.061005 0.000001
						CHANNELS 3 Yrotation Zrotation Xrotation
						JOINT RightArm
						{
							OFFSET -14.000000 0.000000 -0.000000
							CHANNELS 3 Yrotation Zrotation Xrotation
							JOINT RightForeArm
							{
								OFFSET -13.187994 -25.827011 0.206338
								CHANNELS 3 Yrotation Zrotation Xrotation
								JOINT RightHand
								{
									OFFSET -7.189089 -27.060608 0.199833
									CHANNELS 3 Yrotation Zrotation Xrotation
									JOINT RightHandThumb1
									{
										OFFSET -0.888699 -2.534554 3.407067
										CHANNELS 3 Yrotation Zrotation Xrotation
										JOINT RightHandThumb2
										{
											OFFSET -1.026501 -3.863869 0.028533
											CHANNELS 3 Yrotation Zrotation Xrotation
											JOINT RightHandThumb3
											{
												OFFSET -0.713264 -2.684799 0.019826
												CHANNELS 3 Yrotation Zrotation Xrotation
												End Site
												{
													OFFSET -0.611584 -2.302086 0.017000
												}
											}
										}
									}
									JOINT RightInHandIndex
									{
										OFFSET -1.429512 -3.225685 2.172575
										CHANNELS 3 Yrotation Zrotation Xrotation
										JOINT RightHandIndex1
										{
											OFFSET -1.357243 -5.491745 1.125458
											CHANNELS 3 Yrotation Zrotation Xrotation
											JOINT RightHandIndex2
											{
												OFFSET -1.009045 -3.798141 0.028048
												CHANNELS 3 Yrotation Zrotation Xrotation
												JOINT RightHandIndex3
												{
													OFFSET -0.572041 -2.153267 0.015901
													CHANNELS 3 Yrotation Zrotation Xrotation
													End Site
													{
														OFFSET -0.503231 -1.894241 0.013988
													}
												}
											}
										}
									}
									JOINT RightInHandMiddle
									{
										OFFSET -1.484951 -3.398720 0.847831
										CHANNELS 3 Yrotation Zrotation Xrotation
										JOINT RightHandMiddle1
										{
											OFFSET -1.354069 -5.450478 0.381144
											CHANNELS 3 Yrotation Zrotation Xrotation
											JOINT RightHandMiddle2
											{
												OFFSET -1.100967 -4.144135 0.030603
												CHANNELS 3 Yrotation Zrotation Xrotation
												JOINT RightHandMiddle3
												{
													OFFSET -0.690144 -2.597824 0.019184
													CHANNELS 3 Yrotation Zrotation Xrotation
													End Site
													{
														OFFSET -0.550488 -2.072067 0.015302
													}
												}
											}
										}
									}
									JOINT RightInHandRing
									{
										OFFSET -1.502769 -3.382462 -0.114287
										CHANNELS 3 Yrotation Zrotation Xrotation
										JOINT RightHandRing1
										{
											OFFSET -1.269424 -4.873001 -0.484059
											CHANNELS 3 Yrotation Zrotation Xrotation
											JOINT RightHandRing2
											{
												OFFSET -0.959488 -3.611633 0.026671
												CHANNELS 3 Yrotation Zrotation Xrotation
												JOINT RightHandRing3
												{
													OFFSET -0.665764 -2.506012 0.018506
													CHANNELS 3 Yrotation Zrotation Xrotation
													End Site
													{
														OFFSET -0.517612 -1.948372 0.014388
													}
												}
											}
										}
									}
									JOINT RightInHandPinky
									{
										OFFSET -1.375679 -3.195129 -1.280795
										CHANNELS 3 Yrotation Zrotation Xrotation
										JOINT RightHandPinky1
										{
											OFFSET -1.132607 -4.359695 -1.151867
											CHANNELS 3 Yrotation Zrotation Xrotation
											JOINT RightHandPinky2
											{
												OFFSET -0.768463 -2.892593 0.021361
												CHANNELS 3 Yrotation Zrotation Xrotation
												JOINT RightHandPinky3
												{
													OFFSET -0.485523 -1.827560 0.013496
													CHANNELS 3 Yrotation Zrotation Xrotation
													End Site
													{
														OFFSET -0.458561 -1.726074 0.012747
													}
												}
											}
										}
									}
								}
							}
						}
					}
					JOINT LeftShoulder
					{
						OFFSET 3.500000 8.061005 0.000001
						CHANNELS 3 Yrotation Zrotation Xrotation
						JOINT LeftArm
						{
							OFFSET 14.000000 0.000000 -0.000000
							CHANNELS 3 Yrotation Zrotation Xrotation
							JOINT LeftForeArm
							{
								OFFSET 13.187994 -25.827011 0.206338
								CHANNELS 3 Yrotation Zrotation Xrotation
								JOINT LeftHand
								{
									OFFSET 7.189089 -27.060608 0.199833
									CHANNELS 3 Yrotation Zrotation Xrotation
									JOINT LeftHandThumb1
									{
										OFFSET 0.888699 -2.534554 3.407067
										CHANNELS 3 Yrotation Zrotation Xrotation
										JOINT LeftHandThumb2
										{
											OFFSET 1.026501 -3.863869 0.028533
											CHANNELS 3 Yrotation Zrotation Xrotation
											JOINT LeftHandThumb3
											{
												OFFSET 0.713264 -2.684799 0.019826
												CHANNELS 3 Yrotation Zrotation Xrotation
												End Site
												{
													OFFSET 0.611584 -2.302086 0.017000
												}
											}
										}
									}
									JOINT LeftInHandIndex
									{
										OFFSET 1.429512 -3.225685 2.172575
										CHANNELS 3 Yrotation Zrotation Xrotation
										JOINT LeftHandIndex1
										{
											OFFSET 1.357243 -5.491745 1.125458
											CHANNELS 3 Yrotation Zrotation Xrotation
											JOINT LeftHandIndex2
											{
												OFFSET 1.009045 -3.798141 0.028048
												CHANNELS 3 Yrotation Zrotation Xrotation
												JOINT LeftHandIndex3
												{
													OFFSET 0.572041 -2.153267 0.015901
													CHANNELS 3 Yrotation Zrotation Xrotation
													End Site
													{
														OFFSET 0.503231 -1.894241 0.013988
													}
												}
											}
										}
									}
									JOINT LeftInHandMiddle
									{
										OFFSET 1.484951 -3.398720 0.847831
										CHANNELS 3 Yrotation Zrotation Xrotation
										JOINT LeftHandMiddle1
										{
											OFFSET 1.354069 -5.450478 0.381144
											CHANNELS 3 Yrotation Zrotation Xrotation
											JOINT LeftHandMiddle2
											{
												OFFSET 1.100967 -4.144135 0.030603
												CHANNELS 3 Yrotation Zrotation Xrotation
												JOINT LeftHandMiddle3
												{
													OFFSET 0.690144 -2.597824 0.019184
													CHANNELS 3 Yrotation Zrotation Xrotation
													End Site
													{
														OFFSET 0.550488 -2.072067 0.015302
													}
												}
											}
										}
									}
									JOINT LeftInHandRing
									{
										OFFSET 1.502769 -3.382462 -0.114287
										CHANNELS 3 Yrotation Zrotation Xrotation
										JOINT LeftHandRing1
										{
											OFFSET 1.269424 -4.873001 -0.484059
											CHANNELS 3 Yrotation Zrotation Xrotation
											JOINT LeftHandRing2
											{
												OFFSET 0.959488 -3.611633 0.026671
												CHANNELS 3 Yrotation Zrotation Xrotation
												JOINT LeftHandRing3
												{
													OFFSET 0.665764 -2.506012 0.018506
													CHANNELS 3 Yrotation Zrotation Xrotation
													End Site
													{
														OFFSET 0.517612 -1.948372 0.014388
													}
												}
											}
										}
									}
									JOINT LeftInHandPinky
									{
										OFFSET 1.375679 -3.195129 -1.280795
										CHANNELS 3 Yrotation Zrotation Xrotation
										JOINT LeftHandPinky1
										{
											OFFSET 1.132607 -4.359695 -1.151867
											CHANNELS 3 Yrotation Zrotation Xrotation
											JOINT LeftHandPinky2
											{
												OFFSET 0.768463 -2.892593 0.021361
												CHANNELS 3 Yrotation Zrotation Xrotation
												JOINT LeftHandPinky3
												{
													OFFSET 0.485523 -1.827560 0.013496
													CHANNELS 3 Yrotation Zrotation Xrotation
													End Site
													{
														OFFSET 0.458561 -1.726074 0.012747
													}
												}
											}
										}
									}
								}
							}
						}
					}
				}
			}
		}
	}
}
MOTION
Frames: 4
Frame Time: 0.041667
-0.000000 -0.000000 0.840584 -0.000151 6.547557 2.668557 -5.119278 -8.575606 -26.132480 0.306516 -0.492271 9.351140 3.783583 3.834684 -17.040239 2.494677 -3.532889 11.954612 -0.369658 0.574812 11.023881 -3.488522 -2.319814 -2.956258 -0.238441 -5.113270 -0.006163 -0.000000 -0.000000 0.000000 -0.000000 -0.000000 0.000000 -0.000000 -0.000000 0.000000 -0.047867 -1.070048 -0.000431 0.000001 0.000021 -3.131938 -0.321216 -6.863045 5.611960 -17.169663 6.827507 5.760596 -0.987202 12.417604 9.048869 -0.000177 0.000020 0.000051 -0.000003 0.000003 0.000002 0.000001 0.000001 -0.000001 0.000001 0.000000 -0.000001 0.000003 0.000008 0.000003 -0.000001 -0.000001 -0.000002 0.000001 -0.000000 0.000001 -0.000000 -0.000002 0.000001 0.000000 0.000005 0.000002 -0.000003 0.000001 -0.000001 -0.000002 -0.000000 0.000001 -0.000001 -0.000001 0.000002 -0.000000 -0.000001 0.000002 -0.000003 -0.000001 0.000001 -0.000000 0.000001 -0.000001 -0.000000 0.000002 0.000001 -0.000001 0.000004 0.000002 -0.000003 0.000000 0.000001 0.000002 0.000000 -0.000001 0.000001 -0.000000 0.000003 -0.321321 -6.863044 -5.722261 17.592433 7.481663 -8.703303 3.048220 9.635641 -23.115655 8.615986 -0.836078 -9.742952 0.000005 -0.000000 -0.000001 0.000001 0.000000 0.000000 0.000002 0.000002 -0.000000 0.000001 -0.000003 0.000003 -0.000002 -0.000001 0.000000 0.000001 0.000003 -0.000003 -0.000001 -0.000001 -0.000002 0.000004 -0.000005 -0.000005 0.000005 0.000001 0.000001 -0.000003 0.000004 0.000002 0.000000 0.000001 0.000000 0.000003 -0.000003 -0.000000 0.000000 -0.000000 0.000006 -0.000003 -0.000002 -0.000000 -0.000001 0.000001 0.000003 0.000001 -0.000003 -0.000002 0.000001 -0.000000 -0.000000 0.000003 -0.000002 -0.000003 -0.000001 -0.000002 -0.000000 
0.000000 -0.000001 0.831474 0.000019 6.255802 2.666866 -5.026743 -7.936922 -30.111903 0.710705 -0.948878 19.193069 3.954452 3.649359 2.808454 2.571327 -3.354260 10.074608 -0.701166 0.939940 18.976045 -3.542838 -2.266544 -1.278685 -0.228681 -4.885172 -0.004817 0.000000 0.000000 -0.000000 0.000000 0.000000 -0.000000 0.000000 0.000000 -0.000000 -0.047642 -1.022553 -0.000431 0.000001 0.000025 -3.131938 -0.306818 -6.557305 5.360985 -17.139574 6.510028 5.437501 -0.896745 11.933595 8.332329 0.132111 2.412806 1.819566 -0.000000 -0.000000 -0.000001 0.000001 0.000002 -0.000001 0.000001 -0.000000 -0.000002 0.000002 0.000001 0.000001 -0.000003 -0.000004 0.000000 0.000002 -0.000000 -0.000002 -0.000000 -0.000002 -0.000001 0.000002 0.000001 -0.000001 -0.000001 0.000001 -0.000002 0.000002 0.000001 0.000001 -0.000002 -0.000002 -0.000002 0.000001 -0.000003 0.000001 -0.000004 0.000001 0.000000 -0.000000 0.000002 -0.000003 -0.000005 0.000002 0.000002 0.000004 0.000001 0.000001 -0.000004 -0.000004 0.000001 0.000001 -0.000001 -0.000002 0.000001 -0.000002 0.000001 -0.306717 -6.557296 -5.467926 17.543298 7.166513 -8.377450 2.868770 9.176579 -22.388873 8.095732 1.090102 -12.220442 0.000001 0.000003 0.000003 0.000002 0.000002 0.000003 -0.000001 -0.000002 0.000002 -0.000002 0.000001 0.000004 0.000001 0.000001 0.000004 0.000000 -0.000001 0.000002 -0.000003 0.000001 -0.000002 -0.000001 0.000001 0.000005 0.000000 0.000000 -0.000003 0.000001 -0.000002 0.000004 0.000000 0.000002 -0.000001 -0.000001 0.000004 0.000001 0.000004 0.000004 -0.000003 -0.000001 -0.000002 -0.000002 0.000001 0.000001 0.000002 0.000000 0.000000 0.000004 0.000002 0.000001 0.000000 0.000000 -0.000003 0.000001 -0.000003 -0.000002 0.000002 
0.000000 -0.000000 0.821838 0.000066 5.360892 2.665810 -4.797732 -6.715651 -32.048450 1.191136 -1.331217 29.140101 4.068140 3.306322 -0.424317 2.712073 -2.599328 7.730160 -1.114639 1.280294 27.615889 -3.611840 -2.192785 3.152139 -0.195088 -4.185968 -0.003470 0.000000 0.000000 0.000000 0.000000 0.000000 0.000000 0.000000 0.000000 0.000000 -0.040847 -0.876683 -0.000431 0.000002 0.000029 -3.131937 -0.262784 -5.619411 4.590817 -17.058616 5.534520 4.447919 -0.657826 10.436322 6.137436 -0.132482 6.582988 4.489034 -0.000004 0.000000 0.000000 -0.000002 0.000003 -0.000000 0.000001 -0.000001 -0.000001 -0.000000 0.000002 0.000003 -0.000002 0.000004 0.000000 -0.000001 -0.000001 -0.000001 0.000001 -0.000001 -0.000001 -0.000003 0.000005 0.000000 -0.000001 -0.000002 0.000001 0.000001 0.000002 -0.000000 -0.000004 -0.000001 -0.000000 -0.000003 0.000001 -0.000000 -0.000002 -0.000002 -0.000001 -0.000000 -0.000002 0.000000 -0.000001 -0.000000 -0.000001 -0.000001 0.000002 0.000003 -0.000003 0.000004 0.000001 0.000001 0.000002 0.000000 0.000001 -0.000000 0.000001 -0.262688 -5.619408 -4.688371 17.404070 6.197482 -7.380194 2.354440 7.749012 -20.164638 6.770838 4.432509 -16.118854 0.000002 0.000006 -0.000003 -0.000001 0.000001 0.000004 -0.000001 -0.000001 0.000001 -0.000001 0.000004 0.000001 0.000005 0.000000 0.000002 0.000000 -0.000001 0.000000 -0.000003 0.000003 0.000001 0.000001 0.000002 -0.000002 0.000003 0.000001 -0.000001 -0.000001 0.000003 0.000005 0.000005 0.000000 -0.000001 0.000003 0.000006 0.000001 0.000000 -0.000004 -0.000002 0.000003 0.000001 -0.000004 -0.000001 0.000002 0.000000 0.000000 0.000003 -0.000002 0.000000 -0.000001 0.000004 0.000001 0.000002 0.000000 -0.000001 0.000002 -0.000001 
-0.000000 -0.000000 0.818161 0.000092 4.235057 2.664710 -4.570229 -5.476073 -30.663977 1.469881 -1.500110 34.366240 4.070028 3.009366 -6.915131 2.868050 -1.598867 5.642240 -1.437731 1.482634 33.765047 -3.667123 -2.123207 10.119927 -0.154099 -3.306525 -0.002533 -0.000000 -0.000000 -0.000000 -0.000000 -0.000000 -0.000000 -0.000000 -0.000000 -0.000000 -0.032285 -0.692916 -0.000431 0.000002 0.000032 -3.131937 -0.207161 -4.439409 3.621064 -16.980909 4.304143 3.205560 -0.440263 8.529654 3.381226 -0.733511 8.724972 5.478145 -0.000000 -0.000001 0.000001 -0.000002 0.000001 0.000001 0.000001 0.000000 0.000001 0.000001 0.000003 0.000002 -0.000001 -0.000002 0.000000 0.000002 -0.000000 0.000000 0.000001 0.000001 0.000000 0.000003 0.000004 -0.000000 0.000001 -0.000002 -0.000002 -0.000000 0.000000 0.000000 0.000001 0.000001 0.000001 0.000002 -0.000001 0.000000 -0.000004 0.000000 -0.000000 0.000001 0.000000 0.000000 -0.000001 0.000000 0.000000 0.000001 0.000006 -0.000000 -0.000000 0.000003 0.000003 -0.000001 -0.000003 0.000001 0.000002 -0.000000 0.000002 -0.207256 -4.439408 -3.708908 17.253970 4.973792 -6.129854 1.785973 5.915195 -17.376647 6.130079 6.294917 -17.544003 0.000002 -0.000001 0.000001 -0.000001 -0.000002 0.000002 -0.000001 -0.000002 -0.000002 -0.000004 -0.000004 0.000002 0.000004 0.000001 0.000003 -0.000003 0.000003 0.000002 0.000000 0.000001 0.000000 -0.000001 -0.000003 0.000003 0.000004 -0.000003 -0.000006 -0.000002 0.000002 0.000001 0.000003 -0.000002 -0.000003 -0.000001 -0.000001 0.000001 0.000004 0.000001 -0.000001 -0.000001 -0.000001 0.000003 0.000002 0.000002 0.000001 -0.000004 -0.000002 0.000002 0.000001 0.000003 -0.000005 -0.000001 -0.000001 -0.000000 -0.000002 0.000001 -0.000000 
